<svg width="64" height="64" xmlns="http://www.w3.org/2000/svg">

 <g>
  <title>background</title>
  <rect fill="none" id="canvas_background" height="402" width="582" y="-1" x="-1"/>
 </g>
 <g>
  <title>Layer 1</title>
  <path id="svg_1" fill="#241F20" d="m62.869,16.842l-0.057,0c-1.096,0.007 -1.266,-0.945 -1.285,-1.387l0,-6.913c0,-0.738 -0.598,-1.336 -1.334,-1.336l-19.765,0c-4.959,0 -6.809,1.838 -7.268,2.415l-0.126,0.175l-0.001,0.003l-0.391,0.536c-0.001,0 -0.001,0 -0.001,0c-0.525,0.721 -0.982,0.414 -1.202,0.178l-0.748,-0.933l-0.37,-0.446c-0.622,-0.653 -2.243,-1.928 -5.456,-1.928l-21.057,0c-0.738,0 -1.336,0.598 -1.336,1.336l0,6.825c0,1.195 -0.649,1.435 -1.047,1.475l-0.296,0c-0.324,0.02 -1.078,0.208 -1.078,1.595l0,32.529c0,0.798 0.647,1.444 1.445,1.444l19.218,0c6.131,0 8.803,2.312 9.604,3.199l0.457,0.566l0.001,0c0,0 1.226,1.387 2.518,0l0,0l0.268,-0.314l0,0.001l0.004,-0.003l0.342,-0.4c0.01,-0.012 0.092,-0.104 0.211,-0.226c1.023,-0.995 3.58,-2.823 8.58,-2.823l19.805,0c0.799,0 1.445,-0.646 1.445,-1.444l0,-32.844c0,-1.176 -0.851,-1.274 -1.08,-1.28zm-4.318,29.02c0,0.641 -0.535,1.158 -1.201,1.158l-16.295,0c-5.799,0 -7.904,2.62 -7.904,2.62l-0.267,0.358l-0.125,0.173c-0.001,0 -0.001,0 -0.001,0c-0.553,0.751 -1.366,0.006 -1.37,0.002l-0.375,-0.469c-0.278,-0.334 -2.408,-2.685 -7.563,-2.685l-16.8,0c-0.663,0 -1.199,-0.518 -1.199,-1.158l0,-34.662c0,-0.64 0.536,-1.158 1.199,-1.158l13.043,0c9.702,0 10.621,5.511 10.684,7.112l0,24.106c0,1.752 0.835,2.081 1.306,2.129l0.701,0c0.48,-0.048 1.243,-0.333 1.243,-1.7l0,-24.846l-0.008,0c0.072,-2.005 0.854,-6.802 6.689,-6.802l17.042,0c0.666,0 1.201,0.518 1.201,1.158l0,34.664z"/>
 </g>
</svg>